# xmcd
#
# Track frame offsets: 
#        150
#        21770
#        38500
#        58767
#        86877
#        107320
#        124867
#        154707
#
# Disc length: 2289 seconds
#
# Revision: 0
# Processed by: cddbd v1.5.2PL0 Copyright (c) Steve Scherf et al.
# Submitted via: ExactAudioCopyFreeDBPlugin 1.0
#
DISCID=5a08ef08
DTITLE=The Escorts - All We Need Is Another Chance
DYEAR=1973
DGENRE=Soul
TTITLE0=Intro: I'll Be Sweeter Tomorrow
TTITLE1=By The Time I Get To Phoenix
TTITLE2=Little Green Apples
TTITLE3=All We Need (Is Another Chance)
TTITLE4=Look Over Your Shoulder
TTITLE5=I'm So Glad I Found You
TTITLE6=Ooh Baby, Baby
TTITLE7=Just Another Lonely Night
EXTD=
EXTT0=
EXTT1=
EXTT2=
EXTT3=
EXTT4=
EXTT5=
EXTT6=
EXTT7=
PLAYORDER=
